<svg xmlns="http://www.w3.org/2000/svg" viewBox="0 0 1000 563"><defs><linearGradient id="bg" x1="0" y1="0" x2="1" y2="1"><stop stop-color="#080c1c"/><stop offset=".52" stop-color="#ff5bd7"/><stop offset="1" stop-color="#4668ff"/></linearGradient><linearGradient id="screen" x1="0" y1="0" x2="1" y2="1"><stop stop-color="#ff5bd7"/><stop offset="1" stop-color="#4668ff"/></linearGradient><radialGradient id="orb"><stop stop-color="#fff" stop-opacity=".95"/><stop offset=".32" stop-color="#ff5bd7" stop-opacity=".75"/><stop offset="1" stop-color="#4668ff" stop-opacity=".05"/></radialGradient><filter id="blur"><feGaussianBlur stdDeviation="28"/></filter></defs><rect width="1000" height="563" fill="url(#bg)"/><circle cx="230" cy="85" r="180" fill="#ff5bd7" opacity=".28" filter="url(#blur)"/><circle cx="880" cy="500" r="200" fill="#4668ff" opacity=".34" filter="url(#blur)"/><g opacity=".18"><circle cx="70" cy="80" r="2.6" fill="#fff"/><circle cx="145" cy="80" r="2.6" fill="#fff"/><circle cx="220" cy="80" r="2.6" fill="#fff"/><circle cx="295" cy="80" r="2.6" fill="#fff"/><circle cx="370" cy="80" r="2.6" fill="#fff"/><circle cx="445" cy="80" r="2.6" fill="#fff"/><circle cx="520" cy="80" r="2.6" fill="#fff"/><circle cx="595" cy="80" r="2.6" fill="#fff"/><circle cx="670" cy="80" r="2.6" fill="#fff"/><circle cx="745" cy="80" r="2.6" fill="#fff"/><circle cx="820" cy="80" r="2.6" fill="#fff"/><circle cx="895" cy="80" r="2.6" fill="#fff"/><circle cx="70" cy="168" r="2.6" fill="#fff"/><circle cx="145" cy="168" r="2.6" fill="#fff"/><circle cx="220" cy="168" r="2.6" fill="#fff"/><circle cx="295" cy="168" r="2.6" fill="#fff"/><circle cx="370" cy="168" r="2.6" fill="#fff"/><circle cx="445" cy="168" r="2.6" fill="#fff"/><circle cx="520" cy="168" r="2.6" fill="#fff"/><circle cx="595" cy="168" r="2.6" fill="#fff"/><circle cx="670" cy="168" r="2.6" fill="#fff"/><circle cx="745" cy="168" r="2.6" fill="#fff"/><circle cx="820" cy="168" r="2.6" fill="#fff"/><circle cx="895" cy="168" r="2.6" fill="#fff"/><circle cx="70" cy="256" r="2.6" fill="#fff"/><circle cx="145" cy="256" r="2.6" fill="#fff"/><circle cx="220" cy="256" r="2.6" fill="#fff"/><circle cx="295" cy="256" r="2.6" fill="#fff"/><circle cx="370" cy="256" r="2.6" fill="#fff"/><circle cx="445" cy="256" r="2.6" fill="#fff"/><circle cx="520" cy="256" r="2.6" fill="#fff"/><circle cx="595" cy="256" r="2.6" fill="#fff"/><circle cx="670" cy="256" r="2.6" fill="#fff"/><circle cx="745" cy="256" r="2.6" fill="#fff"/><circle cx="820" cy="256" r="2.6" fill="#fff"/><circle cx="895" cy="256" r="2.6" fill="#fff"/><circle cx="70" cy="344" r="2.6" fill="#fff"/><circle cx="145" cy="344" r="2.6" fill="#fff"/><circle cx="220" cy="344" r="2.6" fill="#fff"/><circle cx="295" cy="344" r="2.6" fill="#fff"/><circle cx="370" cy="344" r="2.6" fill="#fff"/><circle cx="445" cy="344" r="2.6" fill="#fff"/><circle cx="520" cy="344" r="2.6" fill="#fff"/><circle cx="595" cy="344" r="2.6" fill="#fff"/><circle cx="670" cy="344" r="2.6" fill="#fff"/><circle cx="745" cy="344" r="2.6" fill="#fff"/><circle cx="820" cy="344" r="2.6" fill="#fff"/><circle cx="895" cy="344" r="2.6" fill="#fff"/><circle cx="70" cy="432" r="2.6" fill="#fff"/><circle cx="145" cy="432" r="2.6" fill="#fff"/><circle cx="220" cy="432" r="2.6" fill="#fff"/><circle cx="295" cy="432" r="2.6" fill="#fff"/><circle cx="370" cy="432" r="2.6" fill="#fff"/><circle cx="445" cy="432" r="2.6" fill="#fff"/><circle cx="520" cy="432" r="2.6" fill="#fff"/><circle cx="595" cy="432" r="2.6" fill="#fff"/><circle cx="670" cy="432" r="2.6" fill="#fff"/><circle cx="745" cy="432" r="2.6" fill="#fff"/><circle cx="820" cy="432" r="2.6" fill="#fff"/><circle cx="895" cy="432" r="2.6" fill="#fff"/><circle cx="70" cy="520" r="2.6" fill="#fff"/><circle cx="145" cy="520" r="2.6" fill="#fff"/><circle cx="220" cy="520" r="2.6" fill="#fff"/><circle cx="295" cy="520" r="2.6" fill="#fff"/><circle cx="370" cy="520" r="2.6" fill="#fff"/><circle cx="445" cy="520" r="2.6" fill="#fff"/><circle cx="520" cy="520" r="2.6" fill="#fff"/><circle cx="595" cy="520" r="2.6" fill="#fff"/><circle cx="670" cy="520" r="2.6" fill="#fff"/><circle cx="745" cy="520" r="2.6" fill="#fff"/><circle cx="820" cy="520" r="2.6" fill="#fff"/><circle cx="895" cy="520" r="2.6" fill="#fff"/></g><rect x="78" y="78" width="844" height="407" rx="42" fill="#060916" opacity=".64" stroke="#ffffff26"/><rect x="120" y="124" width="390" height="26" rx="13" fill="#ffffff54"/><rect x="120" y="176" width="330" height="16" rx="8" fill="#ffffff2e"/><rect x="120" y="208" width="250" height="16" rx="8" fill="#ffffff24"/><rect x="122" y="285" width="146" height="46" rx="23" fill="url(#screen)"/><rect x="290" y="285" width="126" height="46" rx="23" fill="#ffffff18" stroke="#ffffff22"/><rect x="560" y="170" width="270" height="260" rx="42" fill="#0b1024" stroke="#ffffff22"/><circle cx="640" cy="260" r="54" fill="url(#orb)"/><rect x="705" y="225" width="76" height="15" rx="8" fill="#ffffff55"/><rect x="705" y="258" width="100" height="13" rx="7" fill="#ffffff30"/><rect x="610" y="340" width="165" height="12" rx="6" fill="#ffffff25"/><text x="120" y="410" font-family="Segoe UI,Arial" font-size="42" font-weight="800" fill="white">Jello Music</text><text x="120" y="450" font-family="Segoe UI,Arial" font-size="20" fill="#d9e6ff">Media player focused layout</text></svg>