<svg xmlns="http://www.w3.org/2000/svg" viewBox="0 0 1000 563"><defs><linearGradient id="bg" x1="0" y1="0" x2="1" y2="1"><stop stop-color="#080c1c"/><stop offset=".52" stop-color="#9c4dff"/><stop offset="1" stop-color="#ff5bd7"/></linearGradient><linearGradient id="screen" x1="0" y1="0" x2="1" y2="1"><stop stop-color="#9c4dff"/><stop offset="1" stop-color="#ff5bd7"/></linearGradient><radialGradient id="orb"><stop stop-color="#fff" stop-opacity=".95"/><stop offset=".32" stop-color="#9c4dff" stop-opacity=".75"/><stop offset="1" stop-color="#ff5bd7" stop-opacity=".05"/></radialGradient><filter id="blur"><feGaussianBlur stdDeviation="28"/></filter></defs><rect width="1000" height="563" fill="url(#bg)"/><circle cx="230" cy="85" r="180" fill="#9c4dff" opacity=".28" filter="url(#blur)"/><circle cx="880" cy="500" r="200" fill="#ff5bd7" opacity=".34" filter="url(#blur)"/><g opacity=".18"><circle cx="70" cy="80" r="2.6" fill="#fff"/><circle cx="145" cy="80" r="2.6" fill="#fff"/><circle cx="220" cy="80" r="2.6" fill="#fff"/><circle cx="295" cy="80" r="2.6" fill="#fff"/><circle cx="370" cy="80" r="2.6" fill="#fff"/><circle cx="445" cy="80" r="2.6" fill="#fff"/><circle cx="520" cy="80" r="2.6" fill="#fff"/><circle cx="595" cy="80" r="2.6" fill="#fff"/><circle cx="670" cy="80" r="2.6" fill="#fff"/><circle cx="745" cy="80" r="2.6" fill="#fff"/><circle cx="820" cy="80" r="2.6" fill="#fff"/><circle cx="895" cy="80" r="2.6" fill="#fff"/><circle cx="70" cy="168" r="2.6" fill="#fff"/><circle cx="145" cy="168" r="2.6" fill="#fff"/><circle cx="220" cy="168" r="2.6" fill="#fff"/><circle cx="295" cy="168" r="2.6" fill="#fff"/><circle cx="370" cy="168" r="2.6" fill="#fff"/><circle cx="445" cy="168" r="2.6" fill="#fff"/><circle cx="520" cy="168" r="2.6" fill="#fff"/><circle cx="595" cy="168" r="2.6" fill="#fff"/><circle cx="670" cy="168" r="2.6" fill="#fff"/><circle cx="745" cy="168" r="2.6" fill="#fff"/><circle cx="820" cy="168" r="2.6" fill="#fff"/><circle cx="895" cy="168" r="2.6" fill="#fff"/><circle cx="70" cy="256" r="2.6" fill="#fff"/><circle cx="145" cy="256" r="2.6" fill="#fff"/><circle cx="220" cy="256" r="2.6" fill="#fff"/><circle cx="295" cy="256" r="2.6" fill="#fff"/><circle cx="370" cy="256" r="2.6" fill="#fff"/><circle cx="445" cy="256" r="2.6" fill="#fff"/><circle cx="520" cy="256" r="2.6" fill="#fff"/><circle cx="595" cy="256" r="2.6" fill="#fff"/><circle cx="670" cy="256" r="2.6" fill="#fff"/><circle cx="745" cy="256" r="2.6" fill="#fff"/><circle cx="820" cy="256" r="2.6" fill="#fff"/><circle cx="895" cy="256" r="2.6" fill="#fff"/><circle cx="70" cy="344" r="2.6" fill="#fff"/><circle cx="145" cy="344" r="2.6" fill="#fff"/><circle cx="220" cy="344" r="2.6" fill="#fff"/><circle cx="295" cy="344" r="2.6" fill="#fff"/><circle cx="370" cy="344" r="2.6" fill="#fff"/><circle cx="445" cy="344" r="2.6" fill="#fff"/><circle cx="520" cy="344" r="2.6" fill="#fff"/><circle cx="595" cy="344" r="2.6" fill="#fff"/><circle cx="670" cy="344" r="2.6" fill="#fff"/><circle cx="745" cy="344" r="2.6" fill="#fff"/><circle cx="820" cy="344" r="2.6" fill="#fff"/><circle cx="895" cy="344" r="2.6" fill="#fff"/><circle cx="70" cy="432" r="2.6" fill="#fff"/><circle cx="145" cy="432" r="2.6" fill="#fff"/><circle cx="220" cy="432" r="2.6" fill="#fff"/><circle cx="295" cy="432" r="2.6" fill="#fff"/><circle cx="370" cy="432" r="2.6" fill="#fff"/><circle cx="445" cy="432" r="2.6" fill="#fff"/><circle cx="520" cy="432" r="2.6" fill="#fff"/><circle cx="595" cy="432" r="2.6" fill="#fff"/><circle cx="670" cy="432" r="2.6" fill="#fff"/><circle cx="745" cy="432" r="2.6" fill="#fff"/><circle cx="820" cy="432" r="2.6" fill="#fff"/><circle cx="895" cy="432" r="2.6" fill="#fff"/><circle cx="70" cy="520" r="2.6" fill="#fff"/><circle cx="145" cy="520" r="2.6" fill="#fff"/><circle cx="220" cy="520" r="2.6" fill="#fff"/><circle cx="295" cy="520" r="2.6" fill="#fff"/><circle cx="370" cy="520" r="2.6" fill="#fff"/><circle cx="445" cy="520" r="2.6" fill="#fff"/><circle cx="520" cy="520" r="2.6" fill="#fff"/><circle cx="595" cy="520" r="2.6" fill="#fff"/><circle cx="670" cy="520" r="2.6" fill="#fff"/><circle cx="745" cy="520" r="2.6" fill="#fff"/><circle cx="820" cy="520" r="2.6" fill="#fff"/><circle cx="895" cy="520" r="2.6" fill="#fff"/></g><rect x="78" y="78" width="844" height="407" rx="42" fill="#060916" opacity=".64" stroke="#ffffff26"/><rect x="120" y="124" width="390" height="26" rx="13" fill="#ffffff54"/><rect x="120" y="176" width="330" height="16" rx="8" fill="#ffffff2e"/><rect x="120" y="208" width="250" height="16" rx="8" fill="#ffffff24"/><rect x="122" y="285" width="146" height="46" rx="23" fill="url(#screen)"/><rect x="290" y="285" width="126" height="46" rx="23" fill="#ffffff18" stroke="#ffffff22"/><circle cx="770" cy="250" r="90" fill="url(#orb)" opacity=".75"/><path d="M690 330c80-36 160-36 240 0" stroke="#fff" stroke-opacity=".18" stroke-width="10" fill="none"/><text x="120" y="410" font-family="Segoe UI,Arial" font-size="42" font-weight="800" fill="white">Classic / Jello</text><text x="120" y="450" font-family="Segoe UI,Arial" font-size="20" fill="#d9e6ff">Mode switch showcase</text></svg>